<svg width="135" height="66" viewBox="0 0 135 66" fill="none" xmlns="http://www.w3.org/2000/svg">
<path d="M1.05 15V4.64H3.318L6.587 11.913H6.328L9.534 4.64H11.802V15H10.052V6.278H10.458L7.21 13.523H5.642L2.317 6.278H2.8V15H1.05ZM16.9536 15.14C16.2302 15.14 15.6026 14.9977 15.0706 14.713C14.5386 14.4283 14.1256 13.9967 13.8316 13.418C13.5422 12.8347 13.3976 12.095 13.3976 11.199C13.3976 10.2983 13.5399 9.55633 13.8246 8.973C14.1092 8.38967 14.5176 7.95567 15.0496 7.671C15.5816 7.38633 16.2162 7.244 16.9536 7.244C17.6909 7.244 18.3256 7.38633 18.8576 7.671C19.3896 7.95567 19.7956 8.38967 20.0756 8.973C20.3602 9.55633 20.5026 10.296 20.5026 11.192C20.5026 12.0833 20.3579 12.823 20.0686 13.411C19.7792 13.9943 19.3686 14.4283 18.8366 14.713C18.3046 14.9977 17.6769 15.14 16.9536 15.14ZM16.9536 13.726C17.3082 13.726 17.6116 13.649 17.8636 13.495C18.1156 13.341 18.3092 13.082 18.4446 12.718C18.5799 12.3493 18.6476 11.8453 18.6476 11.206C18.6476 10.5573 18.5799 10.0487 18.4446 9.68C18.3092 9.30667 18.1132 9.043 17.8566 8.889C17.6046 8.735 17.3036 8.658 16.9536 8.658C16.5989 8.658 16.2932 8.735 16.0366 8.889C15.7846 9.043 15.5909 9.30433 15.4556 9.673C15.3202 10.037 15.2526 10.5387 15.2526 11.178C15.2526 11.8267 15.3202 12.3377 15.4556 12.711C15.5909 13.0797 15.7846 13.341 16.0366 13.495C16.2932 13.649 16.5989 13.726 16.9536 13.726ZM24.7834 15.133C24.2234 15.133 23.7077 15.007 23.2364 14.755C22.7697 14.4983 22.3964 14.0923 22.1164 13.537C21.8364 12.977 21.6964 12.2443 21.6964 11.339C21.6964 10.443 21.8504 9.69167 22.1584 9.085C22.4664 8.47367 22.9214 8.014 23.5234 7.706C24.1254 7.39333 24.8674 7.237 25.7494 7.237C25.9267 7.237 26.1017 7.244 26.2744 7.258C26.4517 7.272 26.6127 7.29067 26.7574 7.314V3.688H28.5984V15H27.0514L26.9324 14.188H26.8414C26.6174 14.468 26.3327 14.6967 25.9874 14.874C25.6421 15.0467 25.2407 15.133 24.7834 15.133ZM25.3014 13.614C25.5674 13.614 25.8311 13.5603 26.0924 13.453C26.3537 13.3457 26.5754 13.1777 26.7574 12.949V8.763C26.6221 8.735 26.4634 8.71167 26.2814 8.693C26.0994 8.66967 25.9197 8.658 25.7424 8.658C25.0191 8.658 24.4731 8.854 24.1044 9.246C23.7357 9.638 23.5514 10.2867 23.5514 11.192C23.5514 11.8173 23.6237 12.305 23.7684 12.655C23.9177 13.005 24.1231 13.2523 24.3844 13.397C24.6504 13.5417 24.9561 13.614 25.3014 13.614ZM34.0399 15.14C33.1392 15.14 32.3926 15.0047 31.7999 14.734C31.2119 14.4587 30.7732 14.0293 30.4839 13.446C30.1946 12.8627 30.0499 12.1067 30.0499 11.178C30.0499 10.3147 30.1829 9.59133 30.4489 9.008C30.7196 8.42467 31.1069 7.986 31.6109 7.692C32.1149 7.39333 32.7239 7.244 33.4379 7.244C34.1239 7.244 34.7026 7.39333 35.1739 7.692C35.6499 7.986 36.0092 8.42933 36.2519 9.022C36.4946 9.61467 36.6159 10.352 36.6159 11.234V11.731H31.0859V10.625H35.2159L34.8939 10.779C34.8939 10.2003 34.8379 9.74067 34.7259 9.4C34.6139 9.05933 34.4482 8.81667 34.2289 8.672C34.0096 8.52267 33.7389 8.448 33.4169 8.448C33.0949 8.448 32.8196 8.52033 32.5909 8.665C32.3622 8.80967 32.1872 9.05233 32.0659 9.393C31.9492 9.73367 31.8909 10.1933 31.8909 10.772V11.486C31.8909 12.0367 31.9679 12.4777 32.1219 12.809C32.2806 13.1357 32.5349 13.3713 32.8849 13.516C33.2349 13.656 33.7039 13.726 34.2919 13.726C34.5859 13.726 34.8939 13.7027 35.2159 13.656C35.5379 13.6093 35.8692 13.544 36.2099 13.46V14.867C35.8179 14.965 35.4446 15.035 35.0899 15.077C34.7399 15.119 34.3899 15.14 34.0399 15.14ZM37.9745 15V7.363H39.4865L39.6335 8.364H39.7245C39.9578 7.99067 40.2588 7.71533 40.6275 7.538C40.9961 7.36067 41.3951 7.272 41.8245 7.272C41.9365 7.272 42.0438 7.27667 42.1465 7.286C42.2538 7.29533 42.3495 7.307 42.4335 7.321V8.994C42.3215 8.97533 42.2025 8.96367 42.0765 8.959C41.9551 8.94967 41.8338 8.945 41.7125 8.945C41.4838 8.945 41.2505 8.97767 41.0125 9.043C40.7745 9.10367 40.5505 9.197 40.3405 9.323C40.1305 9.449 39.9555 9.60767 39.8155 9.799V15H37.9745ZM43.4295 15V7.363H44.9555L45.0815 8.168H45.1725C45.4665 7.86933 45.8095 7.64067 46.2015 7.482C46.5935 7.32333 47.0159 7.244 47.4685 7.244C47.9632 7.244 48.4019 7.33967 48.7845 7.531C49.1719 7.72233 49.4752 8.03033 49.6945 8.455C49.9139 8.875 50.0235 9.43733 50.0235 10.142V15H48.1825V10.247C48.1825 9.71967 48.0705 9.35333 47.8465 9.148C47.6225 8.94267 47.3145 8.84 46.9225 8.84C46.7359 8.84 46.5422 8.86567 46.3415 8.917C46.1409 8.96833 45.9472 9.05 45.7605 9.162C45.5739 9.274 45.4105 9.421 45.2705 9.603V15H43.4295ZM55.2557 15V3.688H57.0967V15H55.2557ZM58.9198 15V7.363H60.7608V15H58.9198ZM59.8438 6.061C59.4518 6.061 59.1578 5.97233 58.9618 5.795C58.7704 5.61767 58.6748 5.37267 58.6748 5.06C58.6748 4.74267 58.7704 4.49767 58.9618 4.325C59.1578 4.14767 59.4518 4.059 59.8438 4.059C60.2404 4.059 60.5344 4.14767 60.7258 4.325C60.9171 4.49767 61.0128 4.74267 61.0128 5.06C61.0128 5.37267 60.9171 5.61767 60.7258 5.795C60.5344 5.97233 60.2404 6.061 59.8438 6.061ZM65.1808 18.22C64.7982 18.22 64.3922 18.1943 63.9628 18.143C63.5382 18.0917 63.1298 18.01 62.7378 17.898V16.435C63.1532 16.5563 63.5568 16.645 63.9488 16.701C64.3408 16.757 64.7072 16.785 65.0478 16.785C65.8225 16.785 66.3872 16.631 66.7418 16.323C67.1012 16.0197 67.2808 15.504 67.2808 14.776V14.188H67.1898C66.9658 14.454 66.6835 14.6663 66.3428 14.825C66.0022 14.9837 65.6102 15.063 65.1668 15.063C64.6442 15.063 64.1588 14.9347 63.7108 14.678C63.2628 14.4213 62.9012 14.02 62.6258 13.474C62.3552 12.928 62.2198 12.2163 62.2198 11.339C62.2198 9.99967 62.5675 8.98233 63.2628 8.287C63.9582 7.59167 65.0012 7.244 66.3918 7.244C66.6952 7.244 67.0078 7.26033 67.3298 7.293C67.6518 7.321 67.9645 7.36533 68.2678 7.426C68.5758 7.48667 68.8605 7.559 69.1218 7.643V14.447C69.1218 15.7817 68.7952 16.743 68.1418 17.331C67.4932 17.9237 66.5062 18.22 65.1808 18.22ZM65.8318 13.551C66.0978 13.551 66.3592 13.502 66.6158 13.404C66.8772 13.306 67.0988 13.152 67.2808 12.942V8.784C67.1455 8.74667 66.9868 8.71633 66.8048 8.693C66.6228 8.66967 66.4315 8.658 66.2308 8.658C65.5355 8.658 65.0012 8.854 64.6278 9.246C64.2592 9.63333 64.0748 10.2773 64.0748 11.178C64.0748 11.794 64.1495 12.2747 64.2988 12.62C64.4482 12.9653 64.6535 13.208 64.9148 13.348C65.1808 13.4833 65.4865 13.551 65.8318 13.551ZM70.9373 15V3.688H72.7783V8.161H72.8693C73.1493 7.86233 73.4737 7.636 73.8423 7.482C74.2157 7.32333 74.624 7.244 75.0673 7.244C75.5293 7.244 75.947 7.33967 76.3203 7.531C76.6937 7.71767 76.9877 8.02333 77.2023 8.448C77.4217 8.87267 77.5313 9.435 77.5313 10.135V15H75.6903V10.254C75.6903 9.722 75.576 9.35567 75.3473 9.155C75.1187 8.94967 74.813 8.847 74.4303 8.847C74.239 8.847 74.043 8.87267 73.8423 8.924C73.6417 8.97533 73.448 9.05933 73.2613 9.176C73.0793 9.288 72.9183 9.43033 72.7783 9.603V15H70.9373ZM82.5112 15.14C81.6385 15.14 80.9642 14.9207 80.4882 14.482C80.0169 14.0433 79.7812 13.3457 79.7812 12.389V7.363L80.1102 4.64H81.6222V12.102C81.6222 12.6667 81.7319 13.0587 81.9512 13.278C82.1705 13.4973 82.5159 13.607 82.9872 13.607C83.1179 13.607 83.2509 13.6 83.3862 13.586C83.5215 13.5673 83.6709 13.5417 83.8342 13.509V14.986C83.6382 15.028 83.4235 15.063 83.1902 15.091C82.9615 15.1237 82.7352 15.14 82.5112 15.14ZM78.4722 8.826V7.363H83.7642V8.826H78.4722ZM91.8323 15.14C91.025 15.14 90.3413 15 89.7813 14.72C89.2213 14.4353 88.7967 14.0013 88.5073 13.418C88.218 12.8347 88.0733 12.0927 88.0733 11.192C88.0733 10.2867 88.2297 9.54233 88.5423 8.959C88.855 8.37567 89.31 7.944 89.9073 7.664C90.5047 7.384 91.2303 7.244 92.0843 7.244C92.3783 7.244 92.663 7.26033 92.9383 7.293C93.2183 7.321 93.4843 7.36533 93.7363 7.426V8.903C93.4937 8.85167 93.2557 8.812 93.0223 8.784C92.789 8.756 92.5557 8.742 92.3223 8.742C91.7857 8.742 91.3423 8.82367 90.9923 8.987C90.647 9.14567 90.3903 9.40467 90.2223 9.764C90.0543 10.1187 89.9703 10.5877 89.9703 11.171C89.9703 11.7683 90.0497 12.249 90.2083 12.613C90.3717 12.977 90.612 13.2407 90.9293 13.404C91.2467 13.5627 91.641 13.642 92.1123 13.642C92.355 13.642 92.6047 13.621 92.8613 13.579C93.118 13.5323 93.4097 13.4623 93.7363 13.369V14.846C93.4517 14.9393 93.146 15.0117 92.8193 15.063C92.4973 15.1143 92.1683 15.14 91.8323 15.14ZM95.0545 15V3.688H96.8955V15H95.0545ZM101.911 15.14C101.187 15.14 100.56 14.9977 100.028 14.713C99.4956 14.4283 99.0826 13.9967 98.7886 13.418C98.4993 12.8347 98.3546 12.095 98.3546 11.199C98.3546 10.2983 98.4969 9.55633 98.7816 8.973C99.0663 8.38967 99.4746 7.95567 100.007 7.671C100.539 7.38633 101.173 7.244 101.911 7.244C102.648 7.244 103.283 7.38633 103.815 7.671C104.347 7.95567 104.753 8.38967 105.033 8.973C105.317 9.55633 105.46 10.296 105.46 11.192C105.46 12.0833 105.315 12.823 105.026 13.411C104.736 13.9943 104.326 14.4283 103.794 14.713C103.262 14.9977 102.634 15.14 101.911 15.14ZM101.911 13.726C102.265 13.726 102.569 13.649 102.821 13.495C103.073 13.341 103.266 13.082 103.402 12.718C103.537 12.3493 103.605 11.8453 103.605 11.206C103.605 10.5573 103.537 10.0487 103.402 9.68C103.266 9.30667 103.07 9.043 102.814 8.889C102.562 8.735 102.261 8.658 101.911 8.658C101.556 8.658 101.25 8.735 100.994 8.889C100.742 9.043 100.548 9.30433 100.413 9.673C100.277 10.037 100.21 10.5387 100.21 11.178C100.21 11.8267 100.277 12.3377 100.413 12.711C100.548 13.0797 100.742 13.341 100.994 13.495C101.25 13.649 101.556 13.726 101.911 13.726ZM109.937 15.14C109.064 15.14 108.39 14.9207 107.914 14.482C107.443 14.0433 107.207 13.3457 107.207 12.389V7.363L107.536 4.64H109.048V12.102C109.048 12.6667 109.158 13.0587 109.377 13.278C109.596 13.4973 109.942 13.607 110.413 13.607C110.544 13.607 110.677 13.6 110.812 13.586C110.947 13.5673 111.097 13.5417 111.26 13.509V14.986C111.064 15.028 110.849 15.063 110.616 15.091C110.387 15.1237 110.161 15.14 109.937 15.14ZM105.898 8.826V7.363H111.19V8.826H105.898ZM112.418 15V3.688H114.259V8.161H114.35C114.63 7.86233 114.954 7.636 115.323 7.482C115.696 7.32333 116.104 7.244 116.548 7.244C117.01 7.244 117.427 7.33967 117.801 7.531C118.174 7.71767 118.468 8.02333 118.683 8.448C118.902 8.87267 119.012 9.435 119.012 10.135V15H117.171V10.254C117.171 9.722 117.056 9.35567 116.828 9.155C116.599 8.94967 116.293 8.847 115.911 8.847C115.719 8.847 115.523 8.87267 115.323 8.924C115.122 8.97533 114.928 9.05933 114.742 9.176C114.56 9.288 114.399 9.43033 114.259 9.603V15H112.418ZM124.384 15.14C123.483 15.14 122.736 15.0047 122.144 14.734C121.556 14.4587 121.117 14.0293 120.828 13.446C120.538 12.8627 120.394 12.1067 120.394 11.178C120.394 10.3147 120.527 9.59133 120.793 9.008C121.063 8.42467 121.451 7.986 121.955 7.692C122.459 7.39333 123.068 7.244 123.782 7.244C124.468 7.244 125.046 7.39333 125.518 7.692C125.994 7.986 126.353 8.42933 126.596 9.022C126.838 9.61467 126.96 10.352 126.96 11.234V11.731H121.43V10.625H125.56L125.238 10.779C125.238 10.2003 125.182 9.74067 125.07 9.4C124.958 9.05933 124.792 8.81667 124.573 8.672C124.353 8.52267 124.083 8.448 123.761 8.448C123.439 8.448 123.163 8.52033 122.935 8.665C122.706 8.80967 122.531 9.05233 122.41 9.393C122.293 9.73367 122.235 10.1933 122.235 10.772V11.486C122.235 12.0367 122.312 12.4777 122.466 12.809C122.624 13.1357 122.879 13.3713 123.229 13.516C123.579 13.656 124.048 13.726 124.636 13.726C124.93 13.726 125.238 13.7027 125.56 13.656C125.882 13.6093 126.213 13.544 126.554 13.46V14.867C126.162 14.965 125.788 15.035 125.434 15.077C125.084 15.119 124.734 15.14 124.384 15.14ZM130.418 15.14C129.998 15.14 129.592 15.112 129.2 15.056C128.808 15.0047 128.437 14.9253 128.087 14.818V13.439C128.461 13.551 128.839 13.635 129.221 13.691C129.609 13.747 130.001 13.775 130.397 13.775C130.957 13.775 131.356 13.6933 131.594 13.53C131.832 13.362 131.951 13.131 131.951 12.837C131.951 12.5897 131.886 12.4007 131.755 12.27C131.625 12.1393 131.403 12.0437 131.09 11.983L129.921 11.759C129.212 11.619 128.699 11.3717 128.381 11.017C128.064 10.6577 127.905 10.1863 127.905 9.603C127.905 8.903 128.183 8.336 128.738 7.902C129.298 7.46333 130.152 7.244 131.3 7.244C131.66 7.244 132.005 7.265 132.336 7.307C132.672 7.34433 132.98 7.40267 133.26 7.482V8.861C132.962 8.777 132.651 8.714 132.329 8.672C132.012 8.63 131.688 8.609 131.356 8.609C130.908 8.609 130.558 8.65333 130.306 8.742C130.059 8.826 129.884 8.94033 129.781 9.085C129.679 9.22967 129.627 9.38833 129.627 9.561C129.627 9.771 129.69 9.946 129.816 10.086C129.942 10.2213 130.162 10.3217 130.474 10.387L131.636 10.604C132.327 10.7393 132.838 10.975 133.169 11.311C133.505 11.6423 133.673 12.1253 133.673 12.76C133.673 13.4973 133.391 14.0783 132.826 14.503C132.266 14.9277 131.464 15.14 130.418 15.14Z" fill="#1B2028"/>
<path d="M2.595 33.06C2.40833 33.06 2.22333 33.055 2.04 33.045C1.85667 33.0383 1.66667 33.0267 1.47 33.01C1.27333 32.9967 1.065 32.9783 0.845 32.955V25.72C1.045 25.68 1.25333 25.645 1.47 25.615C1.69 25.585 1.91 25.5633 2.13 25.55C2.35333 25.5333 2.57 25.525 2.78 25.525C4 25.525 4.92 25.8333 5.54 26.45C6.16333 27.0667 6.475 28.0167 6.475 29.3C6.475 30.17 6.33 30.8817 6.04 31.435C5.75 31.9883 5.31667 32.3983 4.74 32.665C4.16667 32.9283 3.45167 33.06 2.595 33.06ZM2.755 32.365C3.39833 32.365 3.93333 32.2617 4.36 32.055C4.78667 31.845 5.105 31.515 5.315 31.065C5.52833 30.6117 5.635 30.0217 5.635 29.295C5.635 28.5783 5.53 27.9933 5.32 27.54C5.11333 27.0867 4.8 26.7533 4.38 26.54C3.96333 26.3233 3.43833 26.215 2.805 26.215C2.625 26.215 2.43833 26.2233 2.245 26.24C2.05167 26.2567 1.855 26.2817 1.655 26.315V32.305C1.82833 32.325 2.00167 32.34 2.175 32.35C2.35167 32.36 2.545 32.365 2.755 32.365ZM7.75695 33V27.575H8.42695L8.49195 28.3H8.54195C8.72862 28.0433 8.96195 27.85 9.24195 27.72C9.52529 27.5867 9.82029 27.52 10.127 27.52C10.2103 27.52 10.2853 27.5233 10.352 27.53C10.422 27.5367 10.4903 27.5467 10.557 27.56V28.3C10.4803 28.2867 10.4036 28.2783 10.327 28.275C10.2536 28.2717 10.1736 28.27 10.087 28.27C9.91029 28.27 9.72529 28.2983 9.53195 28.355C9.34195 28.4083 9.16195 28.4933 8.99195 28.61C8.82195 28.7233 8.67695 28.8667 8.55695 29.04V33H7.75695ZM13.5185 33.095C12.9552 33.095 12.4818 33 12.0985 32.81C11.7185 32.6167 11.4318 32.315 11.2385 31.905C11.0452 31.4917 10.9485 30.9517 10.9485 30.285C10.9485 29.6483 11.0368 29.1233 11.2135 28.71C11.3935 28.2967 11.6468 27.99 11.9735 27.79C12.3035 27.59 12.6935 27.49 13.1435 27.49C13.5868 27.49 13.9635 27.5917 14.2735 27.795C14.5868 27.995 14.8252 28.3033 14.9885 28.72C15.1518 29.1333 15.2335 29.6617 15.2335 30.305V30.55H11.3835V30.005H14.6435L14.4685 30.125C14.4685 29.6183 14.4152 29.215 14.3085 28.915C14.2052 28.615 14.0535 28.4 13.8535 28.27C13.6568 28.1367 13.4168 28.07 13.1335 28.07C12.8535 28.07 12.6102 28.135 12.4035 28.265C12.1968 28.395 12.0368 28.61 11.9235 28.91C11.8135 29.21 11.7585 29.615 11.7585 30.125V30.405C11.7585 30.905 11.8252 31.305 11.9585 31.605C12.0952 31.9017 12.3002 32.1167 12.5735 32.25C12.8468 32.38 13.1935 32.445 13.6135 32.445C13.8202 32.445 14.0335 32.4267 14.2535 32.39C14.4768 32.35 14.7135 32.295 14.9635 32.225V32.88C14.7035 32.9533 14.4552 33.0067 14.2185 33.04C13.9852 33.0767 13.7518 33.095 13.5185 33.095ZM17.675 33.095C17.4017 33.095 17.14 33.0767 16.89 33.04C16.6433 33.0033 16.4033 32.9483 16.17 32.875V32.235C16.4367 32.315 16.6917 32.3733 16.935 32.41C17.1783 32.4433 17.425 32.46 17.675 32.46C18.145 32.46 18.485 32.38 18.695 32.22C18.9083 32.06 19.015 31.835 19.015 31.545C19.015 31.2983 18.9517 31.11 18.825 30.98C18.6983 30.8467 18.4833 30.7483 18.18 30.685L17.445 30.535C16.9517 30.4283 16.5983 30.2533 16.385 30.01C16.175 29.7633 16.07 29.4467 16.07 29.06C16.07 28.6033 16.245 28.2283 16.595 27.935C16.9483 27.6383 17.49 27.49 18.22 27.49C18.4533 27.49 18.675 27.5033 18.885 27.53C19.0983 27.5567 19.3033 27.5967 19.5 27.65V28.295C19.28 28.235 19.0683 28.1917 18.865 28.165C18.665 28.1383 18.455 28.125 18.235 28.125C17.8917 28.125 17.6167 28.1667 17.41 28.25C17.2067 28.33 17.06 28.44 16.97 28.58C16.88 28.7167 16.835 28.87 16.835 29.04C16.835 29.2533 16.895 29.43 17.015 29.57C17.135 29.71 17.345 29.8133 17.645 29.88L18.38 30.03C18.88 30.1333 19.2383 30.3033 19.455 30.54C19.675 30.7767 19.785 31.0983 19.785 31.505C19.785 31.995 19.605 32.3833 19.245 32.67C18.8883 32.9533 18.365 33.095 17.675 33.095ZM22.177 33.095C21.9036 33.095 21.642 33.0767 21.392 33.04C21.1453 33.0033 20.9053 32.9483 20.672 32.875V32.235C20.9386 32.315 21.1936 32.3733 21.437 32.41C21.6803 32.4433 21.927 32.46 22.177 32.46C22.647 32.46 22.987 32.38 23.197 32.22C23.4103 32.06 23.517 31.835 23.517 31.545C23.517 31.2983 23.4536 31.11 23.327 30.98C23.2003 30.8467 22.9853 30.7483 22.682 30.685L21.947 30.535C21.4536 30.4283 21.1003 30.2533 20.887 30.01C20.677 29.7633 20.572 29.4467 20.572 29.06C20.572 28.6033 20.747 28.2283 21.097 27.935C21.4503 27.6383 21.992 27.49 22.722 27.49C22.9553 27.49 23.177 27.5033 23.387 27.53C23.6003 27.5567 23.8053 27.5967 24.002 27.65V28.295C23.782 28.235 23.5703 28.1917 23.367 28.165C23.167 28.1383 22.957 28.125 22.737 28.125C22.3936 28.125 22.1186 28.1667 21.912 28.25C21.7086 28.33 21.562 28.44 21.472 28.58C21.382 28.7167 21.337 28.87 21.337 29.04C21.337 29.2533 21.397 29.43 21.517 29.57C21.637 29.71 21.847 29.8133 22.147 29.88L22.882 30.03C23.382 30.1333 23.7403 30.3033 23.957 30.54C24.177 30.7767 24.287 31.0983 24.287 31.505C24.287 31.995 24.107 32.3833 23.747 32.67C23.3903 32.9533 22.867 33.095 22.177 33.095ZM27.8253 33V27.575H28.5003L28.5553 28.19H28.6103C28.817 27.9567 29.0536 27.7817 29.3203 27.665C29.5903 27.5483 29.877 27.49 30.1803 27.49C30.4803 27.49 30.7486 27.5517 30.9853 27.675C31.222 27.7983 31.4086 28 31.5453 28.28C31.682 28.5567 31.7503 28.9283 31.7503 29.395V33H30.9603V29.445C30.9603 28.9783 30.8686 28.655 30.6853 28.475C30.502 28.295 30.2603 28.205 29.9603 28.205C29.8103 28.205 29.6536 28.23 29.4903 28.28C29.3303 28.33 29.1753 28.41 29.0253 28.52C28.8753 28.6267 28.742 28.77 28.6253 28.95V33H27.8253ZM34.0503 33V29.445C34.0503 28.9783 33.9536 28.655 33.7603 28.475C33.5703 28.295 33.3253 28.205 33.0253 28.205C32.872 28.205 32.7086 28.2317 32.5353 28.285C32.3653 28.335 32.1986 28.4233 32.0353 28.55C31.8753 28.6733 31.7353 28.8433 31.6153 29.06L31.4153 28.415C31.6786 28.0717 31.9703 27.8317 32.2903 27.695C32.6103 27.5583 32.9186 27.49 33.2153 27.49C33.5286 27.49 33.8086 27.5533 34.0553 27.68C34.302 27.8033 34.4953 28.005 34.6353 28.285C34.7786 28.565 34.8503 28.94 34.8503 29.41V33H34.0503ZM38.3269 33.095C37.8602 33.095 37.4535 32.9983 37.1069 32.805C36.7602 32.6083 36.4919 32.305 36.3019 31.895C36.1119 31.4817 36.0169 30.9467 36.0169 30.29C36.0169 29.64 36.1102 29.1083 36.2969 28.695C36.4869 28.2817 36.7552 27.9783 37.1019 27.785C37.4485 27.5883 37.8569 27.49 38.3269 27.49C38.7969 27.49 39.2052 27.5883 39.5519 27.785C39.8985 27.9783 40.1652 28.2817 40.3519 28.695C40.5419 29.105 40.6369 29.6367 40.6369 30.29C40.6369 30.94 40.5402 31.4717 40.3469 31.885C40.1569 32.2983 39.8885 32.6033 39.5419 32.8C39.1985 32.9967 38.7935 33.095 38.3269 33.095ZM38.3269 32.445C38.6335 32.445 38.8985 32.3783 39.1219 32.245C39.3452 32.1117 39.5169 31.89 39.6369 31.58C39.7602 31.2667 39.8219 30.8417 39.8219 30.305C39.8219 29.7583 39.7602 29.3283 39.6369 29.015C39.5169 28.6983 39.3435 28.475 39.1169 28.345C38.8935 28.2117 38.6302 28.145 38.3269 28.145C38.0202 28.145 37.7552 28.2117 37.5319 28.345C37.3085 28.475 37.1352 28.6967 37.0119 29.01C36.8919 29.32 36.8319 29.7433 36.8319 30.28C36.8319 30.8233 36.8919 31.2533 37.0119 31.57C37.1352 31.8833 37.3085 32.1083 37.5319 32.245C37.7552 32.3783 38.0202 32.445 38.3269 32.445ZM43.7378 33.095C43.3445 33.095 42.9861 33.0067 42.6628 32.83C42.3395 32.65 42.0811 32.3633 41.8878 31.97C41.6978 31.5767 41.6028 31.0533 41.6028 30.4C41.6028 29.7467 41.7061 29.205 41.9128 28.775C42.1228 28.345 42.4311 28.0233 42.8378 27.81C43.2445 27.5967 43.7445 27.49 44.3378 27.49C44.4911 27.49 44.6445 27.4967 44.7978 27.51C44.9511 27.5233 45.0928 27.54 45.2228 27.56V24.92H46.0228V33H45.3428L45.2878 32.415H45.2328C45.0728 32.6117 44.8645 32.775 44.6078 32.905C44.3545 33.0317 44.0645 33.095 43.7378 33.095ZM43.9178 32.405C44.1611 32.405 44.3995 32.3517 44.6328 32.245C44.8661 32.1383 45.0628 31.9683 45.2228 31.735V28.24C45.1028 28.21 44.9628 28.1867 44.8028 28.17C44.6428 28.1533 44.4845 28.145 44.3278 28.145C43.6978 28.145 43.2211 28.315 42.8978 28.655C42.5778 28.995 42.4178 29.5533 42.4178 30.33C42.4178 30.8633 42.4811 31.2817 42.6078 31.585C42.7378 31.885 42.9145 32.0967 43.1378 32.22C43.3645 32.3433 43.6245 32.405 43.9178 32.405ZM49.8173 33.095C49.254 33.095 48.7807 33 48.3973 32.81C48.0173 32.6167 47.7307 32.315 47.5373 31.905C47.344 31.4917 47.2473 30.9517 47.2473 30.285C47.2473 29.6483 47.3357 29.1233 47.5123 28.71C47.6923 28.2967 47.9457 27.99 48.2723 27.79C48.6023 27.59 48.9923 27.49 49.4423 27.49C49.8857 27.49 50.2623 27.5917 50.5723 27.795C50.8857 27.995 51.124 28.3033 51.2873 28.72C51.4507 29.1333 51.5323 29.6617 51.5323 30.305V30.55H47.6823V30.005H50.9423L50.7673 30.125C50.7673 29.6183 50.714 29.215 50.6073 28.915C50.504 28.615 50.3523 28.4 50.1523 28.27C49.9557 28.1367 49.7157 28.07 49.4323 28.07C49.1523 28.07 48.909 28.135 48.7023 28.265C48.4957 28.395 48.3357 28.61 48.2223 28.91C48.1123 29.21 48.0573 29.615 48.0573 30.125V30.405C48.0573 30.905 48.124 31.305 48.2573 31.605C48.394 31.9017 48.599 32.1167 48.8723 32.25C49.1457 32.38 49.4923 32.445 49.9123 32.445C50.119 32.445 50.3323 32.4267 50.5523 32.39C50.7757 32.35 51.0123 32.295 51.2623 32.225V32.88C51.0023 32.9533 50.754 33.0067 50.5173 33.04C50.284 33.0767 50.0507 33.095 49.8173 33.095ZM52.6788 33V27.575H53.3488L53.4138 28.3H53.4638C53.6505 28.0433 53.8838 27.85 54.1638 27.72C54.4472 27.5867 54.7422 27.52 55.0488 27.52C55.1322 27.52 55.2072 27.5233 55.2738 27.53C55.3438 27.5367 55.4122 27.5467 55.4788 27.56V28.3C55.4022 28.2867 55.3255 28.2783 55.2488 28.275C55.1755 28.2717 55.0955 28.27 55.0088 28.27C54.8322 28.27 54.6472 28.2983 54.4538 28.355C54.2638 28.4083 54.0838 28.4933 53.9138 28.61C53.7438 28.7233 53.5988 28.8667 53.4788 29.04V33H52.6788ZM56.2921 33V27.575H56.9671L57.0221 28.185H57.0771C57.2971 27.9617 57.5538 27.79 57.8471 27.67C58.1404 27.55 58.4521 27.49 58.7821 27.49C59.1221 27.49 59.4221 27.5533 59.6821 27.68C59.9454 27.8033 60.1504 28.0067 60.2971 28.29C60.4471 28.57 60.5221 28.945 60.5221 29.415V33H59.7271V29.45C59.7271 28.9833 59.6238 28.66 59.4171 28.48C59.2138 28.2967 58.9371 28.205 58.5871 28.205C58.4271 28.205 58.2571 28.2283 58.0771 28.275C57.8971 28.3217 57.7204 28.3983 57.5471 28.505C57.3771 28.6117 57.2254 28.7533 57.0921 28.93V33H56.2921Z" fill="#A4AAAD"/>
<path d="M3.381 63.133C2.933 63.133 2.46867 63.0957 1.988 63.021C1.512 62.951 1.06633 62.8507 0.651 62.72V61.18C0.940333 61.2733 1.24367 61.3527 1.561 61.418C1.883 61.4787 2.198 61.5253 2.506 61.558C2.814 61.5907 3.09867 61.607 3.36 61.607C3.88267 61.607 4.30267 61.551 4.62 61.439C4.942 61.327 5.17533 61.1637 5.32 60.949C5.46933 60.7297 5.544 60.466 5.544 60.158C5.544 59.7613 5.42033 59.4557 5.173 59.241C4.93033 59.0217 4.487 58.8303 3.843 58.667L3.143 58.485C2.247 58.2563 1.57033 57.9063 1.113 57.435C0.660333 56.959 0.434 56.3337 0.434 55.559C0.434 54.607 0.777 53.8603 1.463 53.319C2.149 52.7777 3.18733 52.507 4.578 52.507C4.998 52.507 5.411 52.5327 5.817 52.584C6.223 52.6353 6.58933 52.7053 6.916 52.794V54.334C6.57533 54.236 6.209 54.1613 5.817 54.11C5.42967 54.0587 5.05167 54.033 4.683 54.033C4.09967 54.033 3.633 54.0913 3.283 54.208C2.93767 54.3247 2.688 54.4903 2.534 54.705C2.38 54.915 2.303 55.167 2.303 55.461C2.303 55.8343 2.41267 56.1283 2.632 56.343C2.856 56.553 3.25733 56.735 3.836 56.889L4.536 57.071C5.194 57.2343 5.73533 57.449 6.16 57.715C6.58933 57.9763 6.90667 58.2983 7.112 58.681C7.31733 59.059 7.42 59.5093 7.42 60.032C7.42 60.6807 7.26133 61.236 6.944 61.698C6.62667 62.16 6.167 62.5147 5.565 62.762C4.963 63.0093 4.235 63.133 3.381 63.133ZM3.059 64.68V62.692L4.795 62.664V64.68H3.059ZM3.059 52.871V50.96H4.795V52.871H3.059ZM8.21166 63V61.992L11.1097 58.289C11.4223 57.8923 11.6697 57.5377 11.8517 57.225C12.0383 56.9123 12.1713 56.6253 12.2507 56.364C12.3347 56.1027 12.3767 55.846 12.3767 55.594C12.3767 55.0527 12.2157 54.6583 11.8937 54.411C11.5763 54.159 11.0677 54.033 10.3677 54.033C9.96166 54.033 9.56032 54.0703 9.16366 54.145C8.77166 54.215 8.41232 54.313 8.08566 54.439V52.899C8.29099 52.8197 8.53132 52.752 8.80666 52.696C9.08199 52.6353 9.37132 52.5887 9.67466 52.556C9.97799 52.5233 10.272 52.507 10.5567 52.507C11.756 52.507 12.6683 52.7403 13.2937 53.207C13.919 53.669 14.2317 54.4063 14.2317 55.419C14.2317 55.7783 14.1827 56.133 14.0847 56.483C13.9913 56.833 13.835 57.204 13.6157 57.596C13.3963 57.9833 13.0977 58.4103 12.7197 58.877L10.2907 61.929L10.2207 61.439H14.7497V63H8.21166ZM17.7114 63V53.788L18.3834 54.383L15.2894 56.546V54.775L18.3834 52.605H19.5874V63H17.7114ZM21.0495 63V61.992L23.9475 58.289C24.2602 57.8923 24.5075 57.5377 24.6895 57.225C24.8762 56.9123 25.0092 56.6253 25.0885 56.364C25.1725 56.1027 25.2145 55.846 25.2145 55.594C25.2145 55.0527 25.0535 54.6583 24.7315 54.411C24.4142 54.159 23.9055 54.033 23.2055 54.033C22.7995 54.033 22.3982 54.0703 22.0015 54.145C21.6095 54.215 21.2502 54.313 20.9235 54.439V52.899C21.1289 52.8197 21.3692 52.752 21.6445 52.696C21.9199 52.6353 22.2092 52.5887 22.5125 52.556C22.8159 52.5233 23.1099 52.507 23.3945 52.507C24.5939 52.507 25.5062 52.7403 26.1315 53.207C26.7569 53.669 27.0695 54.4063 27.0695 55.419C27.0695 55.7783 27.0205 56.133 26.9225 56.483C26.8292 56.833 26.6729 57.204 26.4535 57.596C26.2342 57.9833 25.9355 58.4103 25.5575 58.877L23.1285 61.929L23.0585 61.439H27.5875V63H21.0495ZM29.916 63.105C29.5474 63.105 29.251 63.0023 29.027 62.797C28.803 62.5917 28.691 62.3117 28.691 61.957C28.691 61.6023 28.8007 61.3223 29.02 61.117C29.2394 60.9117 29.538 60.809 29.916 60.809C30.2894 60.809 30.5857 60.914 30.805 61.124C31.0244 61.334 31.134 61.6117 31.134 61.957C31.134 62.3023 31.022 62.58 30.798 62.79C30.574 63 30.28 63.105 29.916 63.105ZM35.6505 52.507C36.2291 52.507 36.7565 52.6003 37.2325 52.787C37.7085 52.969 38.1191 53.2583 38.4645 53.655C38.8098 54.0517 39.0758 54.5673 39.2625 55.202C39.4491 55.832 39.5425 56.5927 39.5425 57.484C39.5425 58.7673 39.3558 59.8267 38.9825 60.662C38.6091 61.4973 38.0655 62.118 37.3515 62.524C36.6421 62.93 35.7765 63.133 34.7545 63.133C34.3811 63.133 34.0218 63.1097 33.6765 63.063C33.3311 63.0163 33.0115 62.9347 32.7175 62.818V61.362C33.0161 61.474 33.3311 61.5557 33.6625 61.607C33.9985 61.6583 34.3345 61.684 34.6705 61.684C35.3471 61.684 35.9118 61.5533 36.3645 61.292C36.8171 61.0307 37.1555 60.627 37.3795 60.081C37.6035 59.5303 37.7155 58.8257 37.7155 57.967V57.218C37.7155 56.574 37.6665 56.0373 37.5685 55.608C37.4705 55.174 37.3305 54.8333 37.1485 54.586C36.9665 54.334 36.7471 54.1543 36.4905 54.047C36.2385 53.9397 35.9538 53.886 35.6365 53.886C35.3051 53.886 35.0088 53.9467 34.7475 54.068C34.4908 54.1893 34.2878 54.3807 34.1385 54.642C33.9891 54.8987 33.9145 55.23 33.9145 55.636C33.9145 56.042 33.9915 56.3757 34.1455 56.637C34.3041 56.8983 34.5258 57.092 34.8105 57.218C35.0998 57.3393 35.4381 57.4 35.8255 57.4C36.0821 57.4 36.3435 57.3697 36.6095 57.309C36.8801 57.2483 37.1368 57.1503 37.3795 57.015C37.6268 56.8797 37.8438 56.707 38.0305 56.497V57.855C37.7505 58.1443 37.3771 58.3707 36.9105 58.534C36.4485 58.6927 35.9701 58.772 35.4755 58.772C34.8455 58.772 34.2831 58.6623 33.7885 58.443C33.2985 58.2237 32.9111 57.8877 32.6265 57.435C32.3465 56.9777 32.2065 56.3967 32.2065 55.692C32.2065 55.0153 32.3488 54.439 32.6335 53.963C32.9181 53.487 33.3171 53.1253 33.8305 52.878C34.3485 52.6307 34.9551 52.507 35.6505 52.507ZM44.1544 52.507C44.733 52.507 45.2604 52.6003 45.7364 52.787C46.2124 52.969 46.623 53.2583 46.9684 53.655C47.3137 54.0517 47.5797 54.5673 47.7664 55.202C47.953 55.832 48.0464 56.5927 48.0464 57.484C48.0464 58.7673 47.8597 59.8267 47.4864 60.662C47.113 61.4973 46.5694 62.118 45.8554 62.524C45.146 62.93 44.2804 63.133 43.2584 63.133C42.885 63.133 42.5257 63.1097 42.1804 63.063C41.835 63.0163 41.5154 62.9347 41.2214 62.818V61.362C41.52 61.474 41.835 61.5557 42.1664 61.607C42.5024 61.6583 42.8384 61.684 43.1744 61.684C43.851 61.684 44.4157 61.5533 44.8684 61.292C45.321 61.0307 45.6594 60.627 45.8834 60.081C46.1074 59.5303 46.2194 58.8257 46.2194 57.967V57.218C46.2194 56.574 46.1704 56.0373 46.0724 55.608C45.9744 55.174 45.8344 54.8333 45.6524 54.586C45.4704 54.334 45.251 54.1543 44.9944 54.047C44.7424 53.9397 44.4577 53.886 44.1404 53.886C43.809 53.886 43.5127 53.9467 43.2514 54.068C42.9947 54.1893 42.7917 54.3807 42.6424 54.642C42.493 54.8987 42.4184 55.23 42.4184 55.636C42.4184 56.042 42.4954 56.3757 42.6494 56.637C42.808 56.8983 43.0297 57.092 43.3144 57.218C43.6037 57.3393 43.942 57.4 44.3294 57.4C44.586 57.4 44.8474 57.3697 45.1134 57.309C45.384 57.2483 45.6407 57.1503 45.8834 57.015C46.1307 56.8797 46.3477 56.707 46.5344 56.497V57.855C46.2544 58.1443 45.881 58.3707 45.4144 58.534C44.9524 58.6927 44.474 58.772 43.9794 58.772C43.3494 58.772 42.787 58.6623 42.2924 58.443C41.8024 58.2237 41.415 57.8877 41.1304 57.435C40.8504 56.9777 40.7104 56.3967 40.7104 55.692C40.7104 55.0153 40.8527 54.439 41.1374 53.963C41.422 53.487 41.821 53.1253 42.3344 52.878C42.8524 52.6307 43.459 52.507 44.1544 52.507Z" fill="#1B2028"/>
</svg>
